<svg xmlns="http://www.w3.org/2000/svg" viewBox="0 0 168.8111 40.18597"><path d="M43.01116,19.54544h4.55713v8.73877a45.643,45.643,0,0,1-5.30835.5509c-4.88282,0-6.26-3.98132-6.26-8.93909,0-5.43359,1.2771-8.88916,6.3601-8.88916a24.02188,24.02188,0,0,1,5.20826.65112l-.1001,1.52735a38.26517,38.26517,0,0,0-4.98291-.47571c-3.9812,0-4.50708,3.07983-4.50708,7.1864,0,3.88111.85132,7.23645,4.48193,7.23645a24.46524,24.46524,0,0,0,3.18018-.32556V21.198H43.01116Z" fill="#fff"/><path d="M59.83855,22.19961c0,3.9563-.626,6.6355-4.90771,6.6355s-4.908-2.6792-4.908-6.6355c0-3.98132,1.02661-6.38513,4.908-6.38513C58.78679,15.81448,59.83855,18.21829,59.83855,22.19961Zm-1.803,0c0-3.18005-.626-4.75757-3.10473-4.75757-2.479,0-3.105,1.57752-3.105,4.75757,0,3.05481.25048,5.00794,3.105,5.00794S58.03557,25.25442,58.03557,22.19961Z" fill="#fff"/><path d="M70.63128,26.73184l.10009,1.37719a12.468,12.468,0,0,1-4.0813.701c-3.30542,0-4.73266-1.87793-4.73266-6.28491,0-4.15661,1.50244-6.68567,5.08325-6.68567,2.554,0,4.1814.97657,4.1814,3.35535,0,3.02979-1.928,3.806-6.05957,3.806h-1.302v.37561c0,2.35376.90137,3.83106,2.92969,3.83106A20.9145,20.9145,0,0,0,70.63128,26.73184Zm-5.5337-5.18323c3.02979,0,4.23169-.45068,4.23169-2.32874,0-1.37719-.87646-1.82788-2.32861-1.82788-2.25366,0-3.13013,1.52747-3.155,4.15662Z" fill="#fff"/><path d="M76.01531,17.69253V24.954c0,1.40222.42578,2.25354,1.62768,2.25354.75122,0,1.978-.15027,1.978-.15027l.10034,1.47741a15.153,15.153,0,0,1-2.30371.30042c-2.529,0-3.25512-1.40222-3.25512-3.781V17.69253H72.53484V16.065h1.62769V12.359h1.85278V16.065h3.53076v1.62756Z" fill="#fff"/><path d="M81.44939,28.58474V10.60623h1.87793v7.31164s1.52759-2.10339,3.63086-2.10339c2.75439,0,3.83105,1.9281,3.83105,4.95788v7.81238h-1.853V21.32327c0-2.67932-.65088-3.88123-2.35376-3.88123-1.67749,0-3.25513,2.27869-3.25513,2.27869v8.864Z" fill="#fff"/><path d="M101.95745,26.73184l.10009,1.37719a12.468,12.468,0,0,1-4.08129.701c-3.30542,0-4.73267-1.87793-4.73267-6.28491,0-4.15661,1.50244-6.68567,5.08325-6.68567,2.554,0,4.1814.97657,4.1814,3.35535,0,3.02979-1.928,3.806-6.05957,3.806h-1.302v.37561c0,2.35376.90136,3.83106,2.92968,3.83106A20.91435,20.91435,0,0,0,101.95745,26.73184Zm-5.53369-5.18323c3.02978,0,4.23169-.45068,4.23169-2.32874,0-1.37719-.87647-1.82788-2.32862-1.82788-2.25366,0-3.13013,1.52747-3.155,4.15662Z" fill="#fff"/><path d="M104.41179,22.57522c0-3.98132.95166-6.76074,5.00806-6.76074,1.42725,0,4.50708.42566,4.50708.42566v9.26477c0,1.17676.15039,3.05481.15039,3.05481l-1.87817.07507s-.125-1.15185-.125-2.15332c0,0-1.3523,2.35364-3.656,2.35364C105.43865,28.83511,104.41179,26.68167,104.41179,22.57522Zm1.90308,0c0,2.7544.47583,4.63233,2.479,4.63233,1.90308,0,3.25513-2.60413,3.25513-2.60413V17.66751s-1.72778-.22547-2.40381-.22547C106.94085,17.442,106.31487,19.21987,106.31487,22.57522Z" fill="#fff"/><path d="M117.00774,28.58474V16.065h1.853l.0249,1.87793s1.52759-2.12842,3.63086-2.12842c2.72925,0,3.831,1.9281,3.831,4.98291v7.78735h-1.853V21.32327c0-2.67932-.65088-3.88123-2.35376-3.88123-1.67749,0-3.25513,2.32874-3.25513,2.32874v8.814Z" fill="#fff"/><path d="M138.5678,16.065V28.58474h-1.82788l-.02515-1.87793s-1.52734,2.1283-3.63061,2.1283c-2.7295,0-3.85621-1.70264-3.85621-5.083V16.065h1.87793v7.26147c0,2.6792.626,3.88111,2.35376,3.88111,1.67774,0,3.25513-2.32862,3.25513-2.32862V16.065Z" fill="#fff"/><path d="M148.985,28.58474V21.47341c0-2.85449-.676-4.03137-2.25366-4.03137-1.57739,0-3.20508,2.32874-3.20508,2.32874v8.814h-1.87793V16.065h1.853l.0249,1.87793s1.60254-2.12842,3.58082-2.12842a3.27628,3.27628,0,0,1,3.23,2.15344s1.67773-2.15344,3.7561-2.15344c2.7041,0,3.83105,1.9281,3.83105,5.2583v7.512h-1.853V21.32327c0-2.67932-.626-3.88123-2.35376-3.88123-1.65259,0-2.95459,1.97815-2.95459,1.97815a17.40883,17.40883,0,0,1,.10009,1.80286v7.36169Z" fill="#fff"/><path d="M17.51163,11.28584,29.32592,7.22538v24.6393H22.30736l.00852-9.05119a5.14876,5.14876,0,0,0-.28345-1.68152c-.55517-1.67192-4.5208-9.84613-4.5208-9.84613" fill="#fff"/><path d="M17.00846,15.6411s3.58041,5.7244,3.58041,7.06172l.05647,9.161H16.50762l-.02557-3.14884c-.04049-1.90955-4.37322-7.29668-4.37322-7.29668Z" fill="#fff"/><path d="M10.81989,28.21181l2.754-1.95644A15.07884,15.07884,0,0,1,14.97838,29.165a21.32613,21.32613,0,0,1,.02345,2.70022H12.07356s.00586-.70969.00959-1.02457a2.781,2.781,0,0,0-.439-1.48971c-.12574-.21418-.71182-.95637-.82424-1.13912" fill="#fff"/><rect x="-14.58469" y="-17.77611" width="197.91449" height="75.27395" fill="none"/><rect x="-194.58433" y="-17.77611" width="197.91449" height="75.27395" fill="none"/></svg>